<svg width="1200" height="700" viewBox="0 0 1200 700" fill="none" xmlns="http://www.w3.org/2000/svg">
  <defs>
    <linearGradient id="bg" x1="0" y1="0" x2="1200" y2="700" gradientUnits="userSpaceOnUse">
      <stop stop-color="#0B1020"/>
      <stop offset="1" stop-color="#24112F"/>
    </linearGradient>
    <linearGradient id="card" x1="0" y1="0" x2="1" y2="1">
      <stop stop-color="#F59E0B" stop-opacity="0.18"/>
      <stop offset="1" stop-color="#6366F1" stop-opacity="0.18"/>
    </linearGradient>
  </defs>
  <rect x="0" y="0" width="1200" height="700" rx="36" fill="url(#bg)"/>
  <rect x="70" y="70" width="1060" height="560" rx="28" fill="url(#card)" stroke="#FFFFFF" stroke-opacity="0.10"/>
  <text x="110" y="160" font-family="ui-sans-serif, system-ui" font-size="34" fill="#FFFFFF" fill-opacity="0.92">Planes y suscripción</text>
  <text x="110" y="205" font-family="ui-sans-serif, system-ui" font-size="18" fill="#FFFFFF" fill-opacity="0.60">Marcador de posición (reemplazar por captura real)</text>

  <rect x="110" y="255" width="310" height="370" rx="18" fill="#0B122A" stroke="#FFFFFF" stroke-opacity="0.10"/>
  <rect x="445" y="235" width="310" height="390" rx="18" fill="#0B122A" stroke="#FFFFFF" stroke-opacity="0.14"/>
  <rect x="780" y="255" width="310" height="370" rx="18" fill="#0B122A" stroke="#FFFFFF" stroke-opacity="0.10"/>

  <rect x="140" y="295" width="250" height="18" rx="9" fill="#FFFFFF" fill-opacity="0.08"/>
  <rect x="140" y="330" width="220" height="14" rx="7" fill="#FFFFFF" fill-opacity="0.06"/>
  <rect x="140" y="360" width="240" height="14" rx="7" fill="#FFFFFF" fill-opacity="0.06"/>
  <rect x="140" y="390" width="200" height="14" rx="7" fill="#FFFFFF" fill-opacity="0.06"/>

  <rect x="475" y="275" width="250" height="18" rx="9" fill="#FFFFFF" fill-opacity="0.10"/>
  <rect x="475" y="310" width="220" height="14" rx="7" fill="#FFFFFF" fill-opacity="0.06"/>
  <rect x="475" y="340" width="240" height="14" rx="7" fill="#FFFFFF" fill-opacity="0.06"/>
  <rect x="475" y="370" width="200" height="14" rx="7" fill="#FFFFFF" fill-opacity="0.06"/>
  <rect x="475" y="430" width="250" height="46" rx="14" fill="#F59E0B" fill-opacity="0.75"/>
  <text x="515" y="460" font-family="ui-sans-serif, system-ui" font-size="16" fill="#0B1020" fill-opacity="0.95">Elegir plan</text>

  <rect x="810" y="295" width="250" height="18" rx="9" fill="#FFFFFF" fill-opacity="0.08"/>
  <rect x="810" y="330" width="220" height="14" rx="7" fill="#FFFFFF" fill-opacity="0.06"/>
  <rect x="810" y="360" width="240" height="14" rx="7" fill="#FFFFFF" fill-opacity="0.06"/>
  <rect x="810" y="390" width="200" height="14" rx="7" fill="#FFFFFF" fill-opacity="0.06"/>
</svg>
