<svg width="1200" height="700" viewBox="0 0 1200 700" fill="none" xmlns="http://www.w3.org/2000/svg">
  <defs>
    <linearGradient id="bg" x1="0" y1="0" x2="1200" y2="700" gradientUnits="userSpaceOnUse">
      <stop stop-color="#0B1020"/>
      <stop offset="1" stop-color="#0A1B2A"/>
    </linearGradient>
    <linearGradient id="card" x1="0" y1="0" x2="1" y2="1">
      <stop stop-color="#0EA5E9" stop-opacity="0.20"/>
      <stop offset="1" stop-color="#8B5CF6" stop-opacity="0.20"/>
    </linearGradient>
  </defs>
  <rect x="0" y="0" width="1200" height="700" rx="36" fill="url(#bg)"/>
  <rect x="70" y="70" width="1060" height="560" rx="28" fill="url(#card)" stroke="#FFFFFF" stroke-opacity="0.10"/>
  <text x="110" y="160" font-family="ui-sans-serif, system-ui" font-size="34" fill="#FFFFFF" fill-opacity="0.92">Informe y resultados</text>
  <text x="110" y="205" font-family="ui-sans-serif, system-ui" font-size="18" fill="#FFFFFF" fill-opacity="0.60">Marcador de posición (reemplazar por captura real)</text>
  <rect x="110" y="245" width="980" height="380" rx="18" fill="#0B122A" stroke="#FFFFFF" stroke-opacity="0.10"/>
  <rect x="140" y="280" width="920" height="24" rx="12" fill="#FFFFFF" fill-opacity="0.08"/>
  <rect x="140" y="325" width="860" height="18" rx="9" fill="#FFFFFF" fill-opacity="0.06"/>
  <rect x="140" y="355" width="900" height="18" rx="9" fill="#FFFFFF" fill-opacity="0.06"/>
  <rect x="140" y="385" width="780" height="18" rx="9" fill="#FFFFFF" fill-opacity="0.06"/>
  <rect x="140" y="430" width="920" height="18" rx="9" fill="#FFFFFF" fill-opacity="0.06"/>
  <rect x="140" y="460" width="880" height="18" rx="9" fill="#FFFFFF" fill-opacity="0.06"/>
  <rect x="140" y="490" width="910" height="18" rx="9" fill="#FFFFFF" fill-opacity="0.06"/>
  <rect x="140" y="535" width="240" height="46" rx="14" fill="#6366F1" fill-opacity="0.70"/>
  <text x="165" y="565" font-family="ui-sans-serif, system-ui" font-size="16" fill="#0B1020" fill-opacity="0.95">Descargar PDF</text>
</svg>
